<svg xmlns="http://www.w3.org/2000/svg" viewBox="0 0 512 512" width="512" height="512">
  <defs>
    <linearGradient id="grad1" x1="0%" y1="0%" x2="100%" y2="100%">
      <stop offset="0%" style="stop-color:#7C3AED;stop-opacity:1" />
      <stop offset="100%" style="stop-color:#A855F7;stop-opacity:1" />
    </linearGradient>
  </defs>
  <circle cx="256" cy="256" r="240" fill="url(#grad1)" />
  <polygon points="256,120 400,195 256,270 112,195" fill="white" opacity="0.95"/>
  <polygon points="256,270 400,195 400,210 256,285 112,210 112,195" fill="white" opacity="0.7"/>
  <line x1="256" y1="195" x2="256" y2="280" stroke="white" stroke-width="3" opacity="0.9"/>
  <line x1="256" y1="280" x2="310" y2="340" stroke="#FCD34D" stroke-width="4" stroke-linecap="round"/>
  <circle cx="310" cy="340" r="6" fill="#FCD34D"/>
  <line x1="304" y1="346" x2="304" y2="375" stroke="#FCD34D" stroke-width="3" stroke-linecap="round"/>
  <line x1="310" y1="346" x2="310" y2="380" stroke="#FCD34D" stroke-width="3" stroke-linecap="round"/>
  <line x1="316" y1="346" x2="316" y2="372" stroke="#FCD34D" stroke-width="3" stroke-linecap="round"/>
  <path d="M160,260 L160,330 Q208,360 256,340 Q304,360 352,330 L352,260" fill="none" stroke="white" stroke-width="4" opacity="0.8" stroke-linecap="round"/>
  <line x1="256" y1="260" x2="256" y2="340" stroke="white" stroke-width="3" opacity="0.6"/>
  <g transform="translate(370, 150)" opacity="0.9">
    <path d="M0,-12 L3,-3 L12,0 L3,3 L0,12 L-3,3 L-12,0 L-3,-3 Z" fill="#FCD34D"/>
  </g>
  <g transform="translate(390, 130)" opacity="0.6">
    <path d="M0,-7 L2,-2 L7,0 L2,2 L0,7 L-2,2 L-7,0 L-2,-2 Z" fill="#FCD34D"/>
  </g>
</svg>
