<svg xmlns="http://www.w3.org/2000/svg" viewBox="0 0 720 180" width="720" height="180">
  <defs>
    <linearGradient id="iconGrad" x1="0%" y1="0%" x2="100%" y2="100%">
      <stop offset="0%" style="stop-color:#7C3AED;stop-opacity:1" />
      <stop offset="100%" style="stop-color:#A855F7;stop-opacity:1" />
    </linearGradient>
    <style>
      @import url('https://fonts.googleapis.com/css2?family=Inter:wght@700&amp;display=swap');
    </style>
  </defs>
  <circle cx="90" cy="90" r="80" fill="url(#iconGrad)" />
  <polygon points="90,38 158,73 90,108 22,73" fill="white" opacity="0.95"/>
  <polygon points="90,108 158,73 158,80 90,115 22,80 22,73" fill="white" opacity="0.7"/>
  <line x1="90" y1="73" x2="90" y2="105" stroke="white" stroke-width="2" opacity="0.9"/>
  <line x1="90" y1="105" x2="115" y2="130" stroke="#FCD34D" stroke-width="2.5" stroke-linecap="round"/>
  <circle cx="115" cy="130" r="3.5" fill="#FCD34D"/>
  <line x1="112" y1="133" x2="112" y2="145" stroke="#FCD34D" stroke-width="2" stroke-linecap="round"/>
  <line x1="115" y1="133" x2="115" y2="148" stroke="#FCD34D" stroke-width="2" stroke-linecap="round"/>
  <line x1="118" y1="133" x2="118" y2="143" stroke="#FCD34D" stroke-width="2" stroke-linecap="round"/>
  <path d="M52,100 L52,128 Q71,142 90,132 Q109,142 128,128 L128,100" fill="none" stroke="white" stroke-width="2.5" opacity="0.8" stroke-linecap="round"/>
  <line x1="90" y1="100" x2="90" y2="132" stroke="white" stroke-width="2" opacity="0.6"/>
  <g transform="translate(145, 50)" opacity="0.9">
    <path d="M0,-8 L2,-2 L8,0 L2,2 L0,8 L-2,2 L-8,0 L-2,-2 Z" fill="#FCD34D"/>
  </g>
  <g transform="translate(155, 40)" opacity="0.6">
    <path d="M0,-5 L1.5,-1.5 L5,0 L1.5,1.5 L0,5 L-1.5,1.5 L-5,0 L-1.5,-1.5 Z" fill="#FCD34D"/>
  </g>
  <text x="200" y="108" font-family="Inter, 'SF Pro Display', 'Segoe UI', Helvetica, Arial, sans-serif" font-size="68" font-weight="700" fill="white" letter-spacing="-2">syllabi</text>
  <text x="556" y="108" font-family="Inter, 'SF Pro Display', 'Segoe UI', Helvetica, Arial, sans-serif" font-size="68" font-weight="700" fill="#C084FC" letter-spacing="-2">.ai</text>
</svg>
